<?xml version="1.0" encoding="utf-8"?>
<!-- Generator: Adobe Illustrator 18.0.0, SVG Export Plug-In . SVG Version: 6.00 Build 0)  -->
<!DOCTYPE svg PUBLIC "-//W3C//DTD SVG 1.1//EN" "http://www.w3.org/Graphics/SVG/1.1/DTD/svg11.dtd">
<svg version="1.1" id="Layer_1" xmlns="http://www.w3.org/2000/svg" xmlns:xlink="http://www.w3.org/1999/xlink" x="0px" y="0px"
	 viewBox="0 0 960 560" enable-background="new 0 0 960 560" xml:space="preserve">
<g>
	<path fill="#FFFFFF" d="M678.7,62.4H536.8V34c0-15.7-12.7-28.4-28.4-28.4h-56.8c-15.7,0-28.4,12.7-28.4,28.4v28.4H281.3
		c-15.7,0-28.4,12.7-28.4,28.4v28.4h454.2V90.8C707.1,75.1,694.4,62.4,678.7,62.4z M281.3,526c0,15.7,12.7,28.4,28.4,28.4h340.6
		c15.7,0,28.4-12.7,28.4-28.4V147.5H281.3V526z M565.2,232.7c0-15.7,12.7-28.4,28.4-28.4S622,217,622,232.7v236.5
		c0,15.7-12.7,28.4-28.4,28.4s-28.4-12.7-28.4-28.4V232.7z M451.6,232.7c0-15.7,12.7-28.4,28.4-28.4s28.4,12.7,28.4,28.4v236.5
		c0,15.7-12.7,28.4-28.4,28.4s-28.4-12.7-28.4-28.4V232.7z M338.1,232.7c0-15.7,12.7-28.4,28.4-28.4s28.4,12.7,28.4,28.4v236.5
		c0,15.7-12.7,28.4-28.4,28.4s-28.4-12.7-28.4-28.4C338.1,469.2,338.1,232.7,338.1,232.7z"/>
</g>
</svg>
